<?xml version="1.0" encoding="utf-8"?>
<!-- Generator: Adobe Illustrator 22.0.0, SVG Export Plug-In . SVG Version: 6.00 Build 0)  -->
<svg version="1.1" id="圖層_1" xmlns="http://www.w3.org/2000/svg" xmlns:xlink="http://www.w3.org/1999/xlink" x="0px" y="0px"
	 viewBox="0 0 512 512" style="enable-background:new 0 0 512 512;" xml:space="preserve">
<path d="M110,301H80c-8.3,0-15,6.7-15,15s6.7,15,15,15h30c8.3,0,15-6.7,15-15S118.3,301,110,301z"/>
<path d="M201,301h-30c-8.3,0-15,6.7-15,15s6.7,15,15,15h30c8.3,0,15-6.7,15-15S209.3,301,201,301z"/>
<path d="M83,251h91c8.3,0,15-6.7,15-15v-60c0-8.3-6.7-15-15-15H83c-8.3,0-15,6.7-15,15v60C68,244.3,74.7,251,83,251z M98,191h61v30
	H98V191z"/>
<path d="M385,403.1L385,403.1c-8.3,0-15-6.7-15-15v-84c0-8.3,6.7-15,15-15l0,0c8.3,0,15,6.7,15,15v84
	C400,396.4,393.3,403.1,385,403.1z"/>
<path d="M328,346.1L328,346.1c0-8.3,6.7-15,15-15h84c8.3,0,15,6.7,15,15l0,0c0,8.3-6.7,15-15,15h-84
	C334.6,361.1,328,354.4,328,346.1z"/>
<path d="M512,346.1c0,70.2-56.9,127.1-127,127.1s-127-56.9-127-127.1s56.9-127,127-127S512,275.9,512,346.1z M385,245.5
	c-55.6,0-100.6,45-100.6,100.6s45,100.6,100.6,100.6s100.6-45,100.6-100.6S440.5,245.5,385,245.5z"/>
<path d="M241.4,361H45c-8.3,0-15-6.7-15-15V121h422v92.4c10.9,6.1,21,13.6,30,22.3V76c0-24.8-20.2-45-45-45H45C20.2,31,0,51.2,0,76
	v270c0,24.8,20.2,45,45,45h201.4C243.8,381.4,242.1,371.3,241.4,361z M30,76c0-8.3,6.7-15,15-15h392c8.3,0,15,6.7,15,15v15H30V76z"
	/>
<rect x="452" y="158" width="30" height="109.3"/>
<rect x="176" y="361" width="94.7" height="30"/>
</svg>
