<?xml version="1.0" encoding="utf-8"?>
<!-- Generator: Adobe Illustrator 22.0.0, SVG Export Plug-In . SVG Version: 6.00 Build 0)  -->
<svg version="1.1" id="Capa_1" xmlns="http://www.w3.org/2000/svg" xmlns:xlink="http://www.w3.org/1999/xlink" x="0px" y="0px"
	 viewBox="0 0 512 512" style="enable-background:new 0 0 512 512;" xml:space="preserve">
<g>
	<g>
		<path d="M442.6,90.6C398.4,46.4,339.6,22,277.1,22C213.5,22,154,47.1,109.6,92.7c-4.8,4.9-4.7,12.9,0.2,17.8
			c4.9,4.8,12.9,4.7,17.8-0.2c39.7-40.6,92.7-63,149.5-63c115.2-0.1,208.8,93.5,208.8,208.7s-93.6,208.8-208.8,208.8
			S68.3,371.2,68.3,256v-2.6l20.8,20.8c2.4,2.4,5.7,3.7,8.9,3.7c3.3,0,6.4-1.3,8.9-3.7c4.9-4.9,4.9-12.9,0-17.8L64.8,214
			c-4.9-4.9-12.9-4.9-17.8,0L4.6,256.3c-4.9,4.9-4.9,12.9,0,17.8c4.9,4.9,12.9,4.9,17.8,0l20.8-20.8v2.6
			c0,62.5,24.4,121.2,68.5,165.4s103,68.5,165.4,68.5s121.2-24.4,165.4-68.5s68.4-103,68.4-165.4S486.7,134.8,442.6,90.6z"/>
		<path d="M344.1,170.9L189.4,325.5c-4.9,4.9-4.9,12.9,0,17.8c2.4,2.4,5.7,3.7,8.9,3.7s6.4-1.3,8.9-3.7l154.7-154.7
			c4.9-4.9,4.9-12.9,0-17.8C357,165.9,349,165.9,344.1,170.9z"/>
		<path d="M303.6,275c-17.5,17.5-17.5,46.2,0,63.7c8.5,8.5,19.8,13.2,31.9,13.2c12.1,0,23.4-4.7,31.9-13.2
			c17.5-17.5,17.5-46.2,0-63.7c-8.5-8.5-19.8-13.2-31.9-13.2C323.4,261.8,312.2,266.5,303.6,275z M349.5,321
			c-3.8,3.8-8.7,5.8-14.1,5.8c-5.4,0-10.3-2.1-14.1-5.8c-7.8-7.8-7.8-20.4,0-28.1c3.8-3.8,8.7-5.8,14.1-5.8c5.4,0,10.3,2.1,14.1,5.8
			C357.3,300.6,357.3,313.2,349.5,321z"/>
		<path d="M219.2,159.6c-12.1,0-23.4,4.7-31.9,13.2S174,192.7,174,204.8s4.7,23.4,13.2,31.9s19.8,13.2,31.9,13.2s23.4-4.7,31.9-13.2
			c8.5-8.5,13.2-19.8,13.2-31.9s-4.7-23.4-13.2-31.9C242.5,164.4,231.2,159.6,219.2,159.6z M233.2,218.8c-3.8,3.8-8.7,5.8-14.1,5.8
			s-10.3-2.1-14.1-5.8c-3.8-3.8-5.8-8.7-5.8-14.1c0-5.4,2.1-10.3,5.8-14.1c3.8-3.8,8.7-5.8,14.1-5.8s10.3,2.1,14.1,5.8
			c3.8,3.8,5.8,8.7,5.8,14.1C239,210,237,215.1,233.2,218.8z"/>
	</g>
</g>
</svg>
