<?xml version="1.0" encoding="utf-8"?>
<!-- Generator: Adobe Illustrator 22.0.0, SVG Export Plug-In . SVG Version: 6.00 Build 0)  -->
<svg version="1.1" id="圖層_1" xmlns="http://www.w3.org/2000/svg" xmlns:xlink="http://www.w3.org/1999/xlink" x="0px" y="0px"
	 viewBox="0 0 512 512" style="enable-background:new 0 0 512 512;" xml:space="preserve">
<title>03</title>
<path d="M217.1,0.4C97.2,0.4,0,97.5,0,217.3s97.1,217.1,216.9,217.1S434,337.3,434,217.5l0,0C434,97.6,336.9,0.6,217.1,0.4z
	 M217.1,388.5c-94.5,0-171-76.7-171-171c0-94.5,76.7-171,171-171c94.5,0,171,76.5,171,171C388.1,311.8,311.6,388.5,217.1,388.5
	L217.1,388.5z"/>
<g>
	<g>
		<path d="M502.7,458.5l-104-102.9c-12.2-12.1-31.9-12.1-44.2,0.3c-12.1,12.2-12,32.1,0.3,44.2l104,102.9c6.1,6.1,14,9.1,21.9,9.1
			c8,0,16.1-3,22.2-9.2C515.1,490.4,515,470.6,502.7,458.5z"/>
	</g>
</g>
<path d="M218,320L218,320c-8.3,0-15-6.8-15-15V130c0-8.2,6.8-15,15-15h0c8.2,0,15,6.7,15,15v175C233,313.3,226.3,320,218,320z"/>
<path d="M115.5,217.5L115.5,217.5c0-8.3,6.7-15,15-15h175c8.3,0,15,6.8,15,15v0c0,8.2-6.8,15-15,15h-175
	C122.2,232.5,115.5,225.8,115.5,217.5z"/>
</svg>
