<?xml version="1.0" encoding="utf-8"?>
<!-- Generator: Adobe Illustrator 22.0.0, SVG Export Plug-In . SVG Version: 6.00 Build 0)  -->
<svg version="1.1" id="Capa_1" xmlns="http://www.w3.org/2000/svg" xmlns:xlink="http://www.w3.org/1999/xlink" x="0px" y="0px"
	 viewBox="0 0 512 512" style="enable-background:new 0 0 512 512;" xml:space="preserve">
<path d="M366,114l25.1-92.5c1.4-5.1,0.3-10.6-2.9-14.8S380,0,374.7,0h-46c-27.7,0-54,11.5-72.8,31c-18.8-19.5-45.1-31-72.8-31h-46
	c-5.3,0-10.3,2.5-13.5,6.7c-3.2,4.2-4.3,9.7-2.9,14.8l22.8,83.9h-15.3c-9.3,0-16.9-7.6-16.9-16.9c0-9.4-7.6-17-17-17s-17,7.6-17,17
	c0,23.1,15.4,42.6,36.5,48.8c-15.2,13.4-28.6,28.8-39.5,46c-21.4,33.5-32.7,72-32.7,111.4c0,104.6,0,157.1,29.5,187.1
	C100.9,512,152.6,512,255.6,512c103.3,0,155.2,0,184.9-29.6c29.7-29.6,29.7-81.4,29.7-184.6C470.2,221.9,430.6,152.6,366,114
	L366,114z M183.2,34c23.9,0,46.1,12.8,58,33.5c3,5.3,8.7,8.5,14.7,8.5c6.1,0,11.7-3.2,14.7-8.5c11.9-20.7,34.2-33.5,58-33.5h23.7
	l-19.4,71.4H178.9L159.5,34L183.2,34z M416.4,458.3C396.7,478,346.6,478,255.6,478c-90.6,0-140.5,0-160-19.9
	C75.8,438,75.9,387.1,75.9,294.7c0-32.9,9.5-65.1,27.3-93.1c16.6-26,39.7-47.4,66.9-62.2h171.7c58.3,31.6,94.3,91.9,94.3,158.4
	C436.1,388.6,436.1,438.6,416.4,458.3L416.4,458.3z"/>
<path d="M239.5,264.9c0,6.6,4.2,12.4,10.4,14.6l23,7.9c19.5,6.7,32.6,25.1,32.6,45.8c0,21.3-13.9,39.5-33,45.9v15.4
	c0,9.1-7.4,16.5-16.5,16.5s-16.5-7.4-16.5-16.5V379c-19.2-6.4-33-24.6-33-45.9c0-9.1,7.4-16.5,16.5-16.5s16.5,7.4,16.5,16.5
	c0,8.5,6.9,15.4,15.4,15.4h2.2c8.5,0,15.4-6.9,15.4-15.4c0-6.6-4.2-12.4-10.4-14.6l-23-7.9c-19.5-6.7-32.6-25.1-32.6-45.8
	c0-21.3,13.9-39.5,33-45.9v-15.4c0-9.1,7.4-16.5,16.5-16.5s16.5,7.4,16.5,16.5V219c19.2,6.4,33,24.6,33,45.9
	c0,9.1-7.4,16.5-16.5,16.5c-9.1,0-16.5-7.4-16.5-16.5c0-8.5-6.9-15.4-15.4-15.4h-2.2C246.4,249.5,239.5,256.4,239.5,264.9
	L239.5,264.9z"/>
</svg>
