<?xml version="1.0" encoding="utf-8"?>
<!-- Generator: Adobe Illustrator 22.0.0, SVG Export Plug-In . SVG Version: 6.00 Build 0)  -->
<svg version="1.1" id="Capa_1" xmlns="http://www.w3.org/2000/svg" xmlns:xlink="http://www.w3.org/1999/xlink" x="0px" y="0px"
	 viewBox="0 0 512 512" style="enable-background:new 0 0 512 512;" xml:space="preserve">
<g>
	<path d="M505.2,243.8C454,155.3,358.8,100.3,256.8,100.3c-102,0-197.2,55-248.4,143.4l-6.8,11.8l6.8,11.8
		c51.2,88.5,146.4,143.4,248.4,143.4c102,0,197.2-55,248.4-143.4l6.8-11.8L505.2,243.8z M259.3,339c-50.2,0-91.1-40.8-91.1-91.1
		c0-50.2,40.8-91.1,91.1-91.1s91.1,40.8,91.1,91.1C350.4,298.1,309.5,339,259.3,339z M56.3,255.5c21.7-32.9,50.9-59.4,84.5-78.1
		c-12.3,20.7-19.6,44.7-19.6,70.5c0,36.8,14.5,70.1,38,94.9C117.9,324.3,81.9,294.3,56.3,255.5z M363.2,338.5
		c21.2-24.3,34.2-55.9,34.2-90.6c0-23.8-6.1-46.3-16.8-65.9c30.3,18.3,56.7,43.2,76.6,73.5C433.6,291.4,400.9,319.8,363.2,338.5z
		 M295.2,246.1c0,21.2-17.2,38.4-38.4,38.4c-21.2,0-38.4-17.2-38.4-38.4c0-21.2,17.2-38.4,38.4-38.4
		C278,207.7,295.2,224.9,295.2,246.1z"/>
</g>
</svg>
