<?xml version="1.0" encoding="utf-8"?>
<!-- Generator: Adobe Illustrator 22.0.0, SVG Export Plug-In . SVG Version: 6.00 Build 0)  -->
<svg version="1.1" id="Capa_1" xmlns="http://www.w3.org/2000/svg" xmlns:xlink="http://www.w3.org/1999/xlink" x="0px" y="0px"
	 viewBox="0 0 512 512" style="enable-background:new 0 0 512 512;" xml:space="preserve">
<circle cx="23.6" cy="166.1" r="23.6"/>
<path d="M259.3,330.7c0,0-164.1,11.7-257.4-155.2l43.5-18.4c0,0,68.6,132.8,213.9,132.8V330.7z"/>
<circle cx="488.4" cy="166.1" r="23.6"/>
<path d="M252.7,330.7c0,0,164.1,11.7,257.4-155.2l-43.5-18.4c0,0-68.6,132.8-213.9,132.8V330.7z"/>
<path d="M259.3,460L259.3,460c-6.5,0-11.8-5.3-11.8-11.8V317.7c0-6.5,5.3-11.8,11.8-11.8l0,0c6.5,0,11.8,5.3,11.8,11.8v130.5
	C271.1,454.6,265.8,460,259.3,460z"/>
<path d="M401.3,403.2L401.3,403.2c-6.3,1.6-12.8-2.2-14.4-8.5l-26.2-102.8c-1.6-6.3,2.2-12.8,8.5-14.4h0c6.3-1.6,12.8,2.2,14.4,8.5
	l26.2,102.8C411.4,395.1,407.6,401.6,401.3,403.2z"/>
<path d="M506.6,343L506.6,343c-5.4,3.6-12.8,2.2-16.4-3.2L430.8,252c-3.6-5.4-2.2-12.8,3.2-16.4v0c5.4-3.6,12.8-2.2,16.4,3.2
	l59.4,87.9C513.4,332,512,339.4,506.6,343z"/>
<path d="M111.4,403.2L111.4,403.2c6.3,1.6,12.8-2.2,14.4-8.5L152,291.8c1.6-6.3-2.2-12.8-8.5-14.4h0c-6.3-1.6-12.8,2.2-14.4,8.5
	l-26.2,102.8C101.3,395.1,105.2,401.6,111.4,403.2z"/>
<path d="M6.1,343L6.1,343c5.4,3.6,12.8,2.2,16.4-3.2L81.9,252c3.6-5.4,2.2-12.8-3.2-16.4l0,0c-5.4-3.6-12.8-2.2-16.4,3.2L2.9,326.6
	C-0.7,332,0.7,339.4,6.1,343z"/>
</svg>
