<?xml version="1.0" encoding="utf-8"?>
<!-- Generator: Adobe Illustrator 22.0.0, SVG Export Plug-In . SVG Version: 6.00 Build 0)  -->
<svg version="1.1" id="Layer_1" xmlns="http://www.w3.org/2000/svg" xmlns:xlink="http://www.w3.org/1999/xlink" x="0px" y="0px"
	 viewBox="0 0 512 512" style="enable-background:new 0 0 512 512;" xml:space="preserve">
<g id="XMLID_2_">
	<path id="XMLID_4_" d="M402.2,309.3c-9.1,9.1-9.1,23.8,0,32.8c4.5,4.5,10.5,6.8,16.4,6.8c5.9,0,11.9-2.3,16.4-6.8l69.7-69.7
		c0.5-0.5,1-1.1,1.5-1.7c0.1-0.1,0.2-0.3,0.3-0.4c0.4-0.5,0.7-0.9,1-1.4c0.1-0.1,0.2-0.3,0.3-0.4c0.3-0.5,0.6-1,0.9-1.5
		c0.1-0.1,0.1-0.2,0.1-0.3c0.3-0.6,0.6-1.2,0.8-1.7c0-0.1,0-0.1,0.1-0.2c0.3-0.6,0.5-1.3,0.7-1.9c0-0.1,0-0.2,0.1-0.2
		c0.2-0.6,0.4-1.3,0.5-2c0-0.2,0.1-0.4,0.1-0.6c0.1-0.6,0.2-1.1,0.2-1.7c0.1-0.8,0.1-1.5,0.1-2.3s0-1.6-0.1-2.3
		c-0.1-0.6-0.2-1.1-0.2-1.7c0-0.2-0.1-0.4-0.1-0.6c-0.1-0.7-0.3-1.3-0.5-1.9c0-0.1,0-0.2-0.1-0.3c-0.2-0.7-0.4-1.3-0.7-1.9
		c0-0.1-0.1-0.2-0.1-0.2c-0.2-0.6-0.5-1.2-0.8-1.7c-0.1-0.1-0.1-0.2-0.2-0.3c-0.3-0.5-0.6-1-0.9-1.5c-0.1-0.1-0.2-0.3-0.3-0.4
		c-0.3-0.5-0.7-0.9-1-1.4c-0.1-0.1-0.2-0.3-0.3-0.4c-0.5-0.6-1-1.2-1.5-1.7L435,169.9c-9.1-9.1-23.8-9.1-32.8,0
		c-9.1,9.1-9.1,23.8,0,32.8l30,30H163.1c-12.8,0-23.2,10.4-23.2,23.2s10.4,23.2,23.2,23.2h269.1L402.2,309.3z"/>
	<path id="XMLID_5_" d="M0.5,256c0,104.8,85.2,190,190,190c63.2,0,122.1-31.3,157.5-83.8c7.2-10.6,4.4-25.1-6.2-32.2
		c-10.6-7.2-25.1-4.4-32.3,6.2c-26.8,39.6-71.3,63.3-119,63.3C111.4,399.5,47,335.2,47,256s64.4-143.5,143.5-143.5
		c47.9,0,92.5,23.8,119.2,63.6c7.2,10.6,21.6,13.5,32.2,6.3c10.6-7.2,13.5-21.6,6.3-32.2C312.9,97.5,253.9,66,190.5,66
		C85.7,66,0.5,151.2,0.5,256z"/>
</g>
</svg>
