<svg xmlns="http://www.w3.org/2000/svg" viewBox="0 0 512 512"><path d="M498.7 222.8s0-.1 0 0L290.2 14.3C281.4 5.4 269.5.5 257 .5c-12.6 0-24.4 4.9-33.3 13.8L15.4 222.6l-.2.2c-18.2 18.4-18.2 48.1.1 66.4 8.4 8.4 19.4 13.2 31.2 13.7.5 0 1 .1 1.5.1h8.3v153.4c0 30.4 24.7 55.1 55.1 55.1H402.8c30.4 0 55.1-24.7 55.1-55.1V303.1h7.7c12.6 0 24.4-4.9 33.3-13.8 18.1-18.4 18.1-48.2-.2-66.5zM306.1 481.6h-98.3V376.3c0-13.9 11.3-25.1 25.1-25.1H281c13.9 0 25.1 11.3 25.1 25.1v105.3zm171.4-213.5c-3.2 3.2-7.5 5-12.1 5h-22.7c-8.3 0-15 6.7-15 15v168.4c0 13.8-11.3 25.1-25.1 25.1H336V376.3c0-30.4-24.7-55.1-55.1-55.1h-48.1c-30.4 0-55.1 24.7-55.1 55.1v105.3h-66.6c-13.8 0-25.1-11.3-25.1-25.1V288.1c0-8.3-6.7-15-15-15H48.2c-4.5-.1-8.6-1.8-11.8-5-6.7-6.7-6.7-17.5 0-24.2L244.9 35.5c3.2-3.2 7.5-5 12.1-5s8.9 1.8 12.1 5l208.4 208.4.1.1c6.6 6.6 6.6 17.4-.1 24.1z"/></svg>