<svg height="512" width="512" xmlns="http://www.w3.org/2000/svg"><path d="M407 302c-40.654 0-75.984 23.224-93.423 57.102L202.498 294.97C207.333 282.915 210 269.763 210 256s-2.667-26.915-7.502-38.97l111.079-64.132C331.016 186.776 366.346 210 407 210c57.897 0 105-47.103 105-105S464.897 0 407 0 302 47.103 302 105c0 6.469.592 12.801 1.717 18.95l-116.256 67.12C168.217 166.682 138.406 151 105 151 47.103 151 0 198.103 0 256s47.103 105 105 105c33.406 0 63.217-15.682 82.461-40.07l116.256 67.12A105.207 105.207 0 0 0 302 407c0 57.897 47.103 105 105 105s105-47.103 105-105-47.103-105-105-105zm-39.108-133.032C377.285 157.182 391.65 150 407 150s29.715 7.182 39.108 18.968C434.714 175.96 421.321 180 407 180s-27.714-4.04-39.108-11.032zM392 105c0-8.271 6.729-15 15-15s15 6.729 15 15-6.729 15-15 15-15-6.729-15-15zm15-75c41.355 0 75 33.645 75 75 0 16.192-5.175 31.189-13.934 43.461a80.76 80.76 0 0 0-23.372-18.925A44.726 44.726 0 0 0 452 105c0-24.813-20.187-45-45-45s-45 20.187-45 45a44.72 44.72 0 0 0 7.309 24.54 80.747 80.747 0 0 0-23.371 18.927C337.177 136.194 332 121.195 332 105c0-41.355 33.645-75 75-75zM30 256c0-41.355 33.645-75 75-75s75 33.645 75 75c0 16.192-5.175 31.189-13.934 43.461a80.751 80.751 0 0 0-23.373-18.925A44.72 44.72 0 0 0 150 255.999C150 231.187 129.813 211 105 211s-45 20.187-45 44.999a44.72 44.72 0 0 0 7.307 24.537 80.765 80.765 0 0 0-23.373 18.925C35.175 287.189 30 272.192 30 256zm60-.001c0-8.27 6.729-14.999 15-14.999s15 6.729 15 14.999c0 8.271-6.729 15.001-15 15.001s-15-6.729-15-15.001zm-24.108 63.969C75.285 308.182 89.65 301 105 301s29.715 7.182 39.108 18.968C132.714 326.96 119.321 331 105 331s-27.714-4.04-39.108-11.032zm301.999 151C377.284 459.182 391.649 452 407 452s29.716 7.182 39.109 18.968C434.714 477.96 421.321 482 407 482s-27.714-4.04-39.109-11.032zM407 421.999c-8.271 0-15-6.729-15-15S398.729 392 407 392s15 6.729 15 14.999c0 8.272-6.729 15-15 15zm61.066 28.462a80.735 80.735 0 0 0-23.373-18.925A44.72 44.72 0 0 0 452 406.999C452 382.187 431.813 362 407 362s-45 20.187-45 44.999a44.72 44.72 0 0 0 7.307 24.537 80.751 80.751 0 0 0-23.373 18.925C337.175 438.189 332 423.192 332 407c0-41.355 33.645-75 75-75s75 33.645 75 75c0 16.192-5.175 31.189-13.934 43.461z"/></svg>