<svg xmlns="http://www.w3.org/2000/svg" viewBox="0 0 512 512"><path d="M112 16.6V112H16.6v33.1h112c9.1 0 16.6-7.4 16.6-16.6v-112l-33.2.1zM337.9 210.5c-70.8 0-128.5 57.6-128.5 128.5S267 467.5 337.9 467.5 466.4 409.9 466.4 339s-57.6-128.5-128.5-128.5zm0 211.6c-45.8 0-83.1-37.3-83.1-83.1s37.3-83.1 83.1-83.1S421 293.2 421 339c.1 45.8-37.2 83.1-83.1 83.1z"/><path d="M505 473.2l-75.6-74.8c-8.9-8.8-23.2-8.8-32.1.2-8.8 8.9-8.7 23.3.2 32.1l75.6 74.8a22.5 22.5 0 0 0 15.9 6.6c5.8 0 11.7-2.2 16.1-6.7 8.9-9 8.8-23.4-.1-32.2zM214.4 234H111.3c-9.2 0-16.6-7.4-16.6-16.6 0-9.2 7.4-16.6 16.6-16.6h103.2c9.2 0 16.6 7.4 16.6 16.6-.1 9.2-7.5 16.6-16.7 16.6zM163.4 302h-52.2c-9.2 0-16.6-7.4-16.6-16.6 0-9.2 7.4-16.6 16.6-16.6h52.2c9.2 0 16.6 7.4 16.6 16.6 0 9.2-7.4 16.6-16.6 16.6zM301.7 175.6V47.4c0-9.2 7.4-16.6 16.6-16.6 9.2 0 16.6 7.4 16.6 16.6v128.2c0 9.2-7.4 16.6-16.6 16.6-9.1 0-16.6-7.5-16.6-16.6z"/><path d="M174.9 387.9H33.1V135.4L135.4 33.1h166.4v138.4h33.1V16.6c0-9.1-7.4-16.6-16.6-16.6H128.6c-4.4 0-8.6 1.7-11.7 4.8l-112 112C1.7 120 0 124.2 0 128.6v275.9c0 9.1 7.4 16.6 16.6 16.6h158.3c9.1 0 16.6-7.4 16.6-16.6-.1-9.2-7.5-16.6-16.6-16.6z"/></svg>