<?xml version="1.0" encoding="utf-8"?>
<!-- Generator: Adobe Illustrator 22.0.0, SVG Export Plug-In . SVG Version: 6.00 Build 0)  -->
<svg version="1.1" id="圖層_1" xmlns="http://www.w3.org/2000/svg" xmlns:xlink="http://www.w3.org/1999/xlink" x="0px" y="0px"
	 viewBox="0 0 512 512" style="enable-background:new 0 0 512 512;" xml:space="preserve">
<title>03</title>
<path d="M322.6,26.4c-63.6,0-115.3,51.5-115.3,115.2s51.5,115.3,115.2,115.3s115.3-51.5,115.3-115.2l0,0
	C437.7,78,386.2,26.5,322.6,26.4z M322.6,232.4c-50.2,0-90.8-40.7-90.8-90.8c0-50.2,40.7-90.8,90.8-90.8c50.2,0,90.8,40.6,90.8,90.8
	C413.4,191.7,372.7,232.4,322.6,232.4L322.6,232.4z"/>
<path d="M511.9,472.8V370.3c0,0-3.4-80.5-105.1-107.8h-0.1l0,0h-0.1v0.1c-32.4,49.1-84.7,44.8-84.7,44.8
	c-60.2,0-82.2-44.9-82.2-44.9l-0.1,0.1v-0.1c-101.9,27.2-105.3,107.8-105.3,107.8v104v0.1c0,7.5,6,13.5,13.5,13.5h350.7
	c7.5,0,13.5-6,13.5-13.5C512,473.8,512,473.3,511.9,472.8z M230.3,295.4c35.6,41.1,92.1,38.4,92.1,38.4
	c62.9-0.6,90.6-37.2,91.9-38.9l0.1,0.2c0,0,56.9,12.3,71.4,73.4v92.4H160.3v-92.5C173.4,313,221.7,297.7,230.3,295.4z"/>
<path d="M151.2,246.3c-40.3,0-72.9-32.7-72.9-72.9c0-40.3,32.7-72.9,72.9-72.9c15.3,0,29.6,4.7,41.3,12.8c1.3-7.7,2.9-14.5,4.6-20.2
	C183.6,85.4,167.9,81,151.2,81c-51.1,0-92.5,41.4-92.5,92.4s41.4,92.5,92.4,92.5c28.4,0,53.9-12.8,70.8-33
	c-4.3-5.7-8.1-11.5-11.4-17.2C197.3,234.2,175.7,246.3,151.2,246.3z"/>
<path d="M20.9,429.7v-74.3c10.5-44.5,49.3-56.7,56.2-58.5c14.3,16.5,32.9,24.2,47.9,27.8c3.7-7.1,7.8-13.5,12.1-19.2
	c-38.2-5.8-52.5-35-52.5-35l-0.1,0.1v-0.1C2.8,292.3,0,357,0,357v83.5v0.1c0,6,4.9,10.9,10.9,10.9h103.5c-0.4-7.5-0.6-14.7-0.8-21.7
	H20.9z"/>
</svg>
