<svg xmlns="http://www.w3.org/2000/svg" viewBox="0 0 512 512"><path d="M0 54.9v292.6c0 30.3 24.6 54.9 54.9 54.9h200.2l116.7 105c3.9 3.5 9.1 5.2 14.2 4.6 10-1.1 17.3-10.1 16.2-20.2l-9.9-89.4h64.9c30.3 0 54.9-24.6 54.9-54.9V54.9C512 24.6 487.4 0 457.1 0H54.9C24.6 0 0 24.6 0 54.9zm36.6 292.5V54.9c0-10.1 8.2-18.3 18.3-18.3h402.3c10.1 0 18.3 8.2 18.3 18.3v292.6c0 10.1-8.2 18.3-18.3 18.3h-85.3c-.7 0-1.4 0-2 .1-10 1.1-17.3 10.2-16.1 20.2l6.9 62-86.2-77.6c-3.4-3-7.7-4.7-12.2-4.7H54.9c-10.1-.1-18.3-8.3-18.3-18.4z"/><path d="M402.5 165H111.8c-9.6 0-17.5-7.9-17.5-17.5V145c0-9.6 7.9-17.5 17.5-17.5h290.7c9.6 0 17.5 7.9 17.5 17.5v2.5c0 9.6-7.9 17.5-17.5 17.5zM402.5 261.4H200.7c-9.6 0-17.5-7.9-17.5-17.5v-2.5c0-9.6 7.9-17.5 17.5-17.5h201.8c9.6 0 17.5 7.9 17.5 17.5v2.5c0 9.7-7.9 17.5-17.5 17.5z"/></svg>