<?xml version="1.0" encoding="utf-8"?>
<!-- Generator: Adobe Illustrator 22.0.0, SVG Export Plug-In . SVG Version: 6.00 Build 0)  -->
<svg version="1.1" id="Capa_1" xmlns="http://www.w3.org/2000/svg" xmlns:xlink="http://www.w3.org/1999/xlink" x="0px" y="0px"
	 viewBox="0 0 512 512" style="enable-background:new 0 0 512 512;" xml:space="preserve">
<g>
	<g>
		<path d="M0,54.9v292.6c0,30.3,24.6,54.9,54.9,54.9h200.2l116.7,105c3.9,3.5,9.1,5.2,14.2,4.6c10-1.1,17.3-10.1,16.2-20.2
			l-9.9-89.4h64.9c30.3,0,54.9-24.6,54.9-54.9V54.9C512,24.6,487.4,0,457.1,0H54.9C24.6,0,0,24.6,0,54.9z M36.6,347.4V54.9
			c0-10.1,8.2-18.3,18.3-18.3h402.3c10.1,0,18.3,8.2,18.3,18.3v292.6c0,10.1-8.2,18.3-18.3,18.3h-85.3c-0.7,0-1.4,0-2,0.1
			c-10,1.1-17.3,10.2-16.1,20.2l6.9,62l-86.2-77.6c-3.4-3-7.7-4.7-12.2-4.7H54.9C44.8,365.7,36.6,357.5,36.6,347.4L36.6,347.4z"/>
	</g>
</g>
<path d="M402.5,165H111.8c-9.6,0-17.5-7.9-17.5-17.5V145c0-9.6,7.9-17.5,17.5-17.5h290.7c9.6,0,17.5,7.9,17.5,17.5v2.5
	C420,157.1,412.1,165,402.5,165z"/>
<path d="M402.5,261.4H200.7c-9.6,0-17.5-7.9-17.5-17.5v-2.5c0-9.6,7.9-17.5,17.5-17.5h201.8c9.6,0,17.5,7.9,17.5,17.5v2.5
	C420,253.6,412.1,261.4,402.5,261.4z"/>
</svg>
