<?xml version="1.0" encoding="utf-8"?>
<!-- Generator: Adobe Illustrator 22.0.0, SVG Export Plug-In . SVG Version: 6.00 Build 0)  -->
<svg version="1.1" id="_x31__x2C_5" xmlns="http://www.w3.org/2000/svg" xmlns:xlink="http://www.w3.org/1999/xlink" x="0px"
	 y="0px" viewBox="0 0 512 512" style="enable-background:new 0 0 512 512;" xml:space="preserve">
<style type="text/css">
	.st0{stroke:#000000;stroke-width:3;stroke-miterlimit:10;}
</style>
<path d="M16,138.7c-8.8,0-16-7.2-16-16v-64C0,26.3,26.3,0,58.7,0h64c8.8,0,16,7.2,16,16s-7.2,16-16,16h-64C44,32,32,44,32,58.7v64
	C32,131.5,24.8,138.7,16,138.7z"/>
<path d="M122.7,512h-64C26.3,512,0,485.7,0,453.3v-64c0-8.8,7.2-16,16-16s16,7.2,16,16v64C32,468,44,480,58.7,480h64
	c8.8,0,16,7.2,16,16C138.7,504.8,131.5,512,122.7,512z"/>
<path d="M496,138.7c-8.8,0-16-7.2-16-16v-64C480,44,468,32,453.3,32h-64c-8.8,0-16-7.2-16-16s7.2-16,16-16h64
	C485.7,0,512,26.3,512,58.7v64C512,131.5,504.8,138.7,496,138.7z"/>
<path d="M453.3,512h-64c-8.8,0-16-7.2-16-16c0-8.8,7.2-16,16-16h64c14.7,0,26.7-12,26.7-26.7v-64c0-8.8,7.2-16,16-16
	c8.8,0,16,7.2,16,16v64C512,485.7,485.7,512,453.3,512z"/>
<path class="st0" d="M255.5,46c-55.4,0-100.4,44.9-100.4,100.3S200,246.8,255.4,246.8s100.4-44.9,100.4-100.3l0,0
	C355.9,91,311,46.1,255.5,46z M255.5,225.5c-43.7,0-79.1-35.5-79.1-79.1c0-43.7,35.5-79.1,79.1-79.1c43.7,0,79.1,35.4,79.1,79.1
	C334.6,190.1,299.3,225.5,255.5,225.5L255.5,225.5z"/>
<path class="st0" d="M420.5,435v-89.3c0,0-3-70.1-91.6-93.9h-0.1l0,0h-0.1v0.1c-28.2,42.8-73.8,39-73.8,39
	c-52.5,0-71.6-39.1-71.6-39.1l-0.1,0.1v-0.1c-88.8,23.7-91.8,93.9-91.8,93.9v90.6v0.1c0,6.5,5.3,11.8,11.8,11.8h305.6
	c6.5,0,11.8-5.3,11.8-11.8C420.6,435.8,420.6,435.4,420.5,435z M175.2,280.4c31,35.8,80.3,33.4,80.3,33.4
	c54.8-0.6,79-32.4,80.1-33.9l0.1,0.2c0,0,49.6,10.7,62.2,63.9v80.5H114.1V344C125.5,295.7,167.6,282.4,175.2,280.4z"/>
</svg>
