<?xml version="1.0" encoding="utf-8"?>
<!-- Generator: Adobe Illustrator 22.0.0, SVG Export Plug-In . SVG Version: 6.00 Build 0)  -->
<svg version="1.1" id="圖層_1" xmlns="http://www.w3.org/2000/svg" xmlns:xlink="http://www.w3.org/1999/xlink" x="0px" y="0px"
	 viewBox="0 0 512 512" style="enable-background:new 0 0 512 512;" xml:space="preserve">
<title>nav-open</title>
<path d="M4.2,246.3l88.7-88.7c5.6-5.5,14.6-5.5,20.3,0c5.7,5.6,5.8,14.7,0.2,20.4l-78.5,78.5l78.5,78.5c5.6,5.6,5.6,14.8,0,20.4
	c-5.6,5.6-14.8,5.6-20.4,0L4.2,266.8c-2.7-2.7-4.2-6.4-4.2-10.2C0,252.7,1.5,249,4.2,246.3z"/>
<path d="M223,423.8c0-10.4,8.4-18.8,18.8-18.8h251.5c10.4,0,18.8,8.4,18.8,18.8c0,10.4-8.4,18.8-18.8,18.8H241.7
	C231.4,442.6,223,434.2,223,423.8z"/>
<path d="M223,256c0-10.4,8.4-18.8,18.8-18.8h251.5c10.4,0,18.8,8.4,18.8,18.8s-8.4,18.8-18.8,18.8H241.7
	C231.4,274.8,223,266.4,223,256z"/>
<path d="M144.5,256c0-10.4,8.4-18.8,18.8-18.8h251.5c10.4,0,18.8,8.4,18.8,18.8s-8.4,18.8-18.8,18.8H163.3
	C152.9,274.8,144.5,266.4,144.5,256z"/>
<path d="M223,88.2c0-10.4,8.4-18.8,18.8-18.8h251.5c10.4,0,18.8,8.4,18.8,18.8s-8.4,18.8-18.8,18.8H241.7
	C231.4,107,223,98.6,223,88.2z"/>
</svg>
