<?xml version="1.0" encoding="utf-8"?>
<!-- Generator: Adobe Illustrator 22.0.0, SVG Export Plug-In . SVG Version: 6.00 Build 0)  -->
<svg version="1.1" id="圖層_1" xmlns="http://www.w3.org/2000/svg" xmlns:xlink="http://www.w3.org/1999/xlink" x="0px" y="0px"
	 viewBox="0 0 512 512" style="enable-background:new 0 0 512 512;" xml:space="preserve">
<title>nav-open</title>
<path d="M512,256.5c0,3.8-1.5,7.5-4.2,10.2l-88.7,88.7c-5.6,5.6-14.8,5.6-20.4,0c-5.6-5.6-5.6-14.8,0-20.4l78.5-78.5l-78.5-78.5
	c-5.6-5.7-5.5-14.8,0.2-20.4c5.6-5.5,14.6-5.5,20.3,0l88.7,88.7C510.5,249,512,252.7,512,256.5z"/>
<path d="M270.3,442.6H18.8C8.4,442.6,0,434.2,0,423.8C0,413.4,8.4,405,18.8,405h251.5c10.4,0,18.8,8.4,18.8,18.8
	C289,434.2,280.6,442.6,270.3,442.6z"/>
<path d="M270.3,274.8H18.8C8.4,274.8,0,266.4,0,256s8.4-18.8,18.8-18.8h251.5c10.4,0,18.8,8.4,18.8,18.8
	C289,266.4,280.6,274.8,270.3,274.8z"/>
<path d="M348.7,274.8H97.2c-10.4,0-18.8-8.4-18.8-18.8s8.4-18.8,18.8-18.8h251.5c10.4,0,18.8,8.4,18.8,18.8
	C367.5,266.4,359.1,274.8,348.7,274.8z"/>
<path d="M270.3,107H18.8C8.4,107,0,98.6,0,88.2s8.4-18.8,18.8-18.8h251.5c10.4,0,18.8,8.4,18.8,18.8S280.6,107,270.3,107z"/>
</svg>
