<?xml version="1.0" encoding="utf-8"?>
<!-- Generator: Adobe Illustrator 22.0.0, SVG Export Plug-In . SVG Version: 6.00 Build 0)  -->
<svg version="1.1" id="_x31__x2C_5" xmlns="http://www.w3.org/2000/svg" xmlns:xlink="http://www.w3.org/1999/xlink" x="0px"
	 y="0px" viewBox="0 0 512 512" style="enable-background:new 0 0 512 512;" xml:space="preserve">
<path d="M240,426.7H48c-26.5,0-48-21.5-48-48V197.3c0-26.5,21.5-48,48-48h245.3c26.5,0,48,21.5,48,48v64c0,8.8-7.2,16-16,16
	s-16-7.2-16-16v-64c0-8.8-7.2-16-16-16H48c-8.8,0-16,7.2-16,16v181.3c0,8.8,7.2,16,16,16h192c8.8,0,16,7.2,16,16
	C256,419.5,248.8,426.7,240,426.7z"/>
<path d="M261.3,181.3c-8.8,0-16-7.2-16-16v-58.7c0-41.2-33.5-74.7-74.7-74.7S96,65.5,96,106.7v58.7c0,8.8-7.2,16-16,16
	s-16-7.2-16-16v-58.7C64,47.9,111.9,0,170.7,0s106.7,47.9,106.7,106.7v58.7C277.3,174.2,270.2,181.3,261.3,181.3z"/>
<path d="M496,384h-42.7c-8.8,0-16-7.2-16-16c0-8.8,7.2-16,16-16H480v-26.7c0-8.8,7.2-16,16-16c8.8,0,16,7.2,16,16V368
	C512,376.8,504.8,384,496,384z"/>
<path d="M314.7,501.3c-8.8,0-16-7.2-16-16v-42.7c0-8.8,7.2-16,16-16h42.7c8.8,0,16,7.2,16,16c0,8.8-7.2,16-16,16h-26.7v26.7
	C330.7,494.2,323.5,501.3,314.7,501.3z"/>
<path d="M318.7,394.7c-1.5,0-3.1-0.2-4.7-0.7c-8.4-2.6-13.2-11.5-10.7-20c13.7-45.1,54.7-75.3,101.9-75.3
	c39.5,0,75.5,21.7,93.9,56.5c4.1,7.8,1.2,17.5-6.7,21.7c-7.9,4.1-17.5,1.2-21.7-6.7c-12.9-24.4-38-39.5-65.6-39.5
	c-33.1,0-61.7,21.2-71.3,52.7C331.9,390.2,325.6,394.7,318.7,394.7z"/>
<path d="M405.3,512c-39.5,0-75.5-21.7-93.9-56.5c-4.1-7.8-1.2-17.5,6.7-21.7c7.9-4.1,17.5-1.2,21.7,6.7c12.9,24.4,38,39.5,65.6,39.5
	c32.9,0,61.5-21.2,71.3-52.8c2.6-8.4,11.6-13.2,20-10.5c8.4,2.6,13.1,11.6,10.5,20C493.2,481.7,452.3,512,405.3,512z"/>
</svg>
