<?xml version="1.0" encoding="utf-8"?>
<!-- Generator: Adobe Illustrator 22.0.0, SVG Export Plug-In . SVG Version: 6.00 Build 0)  -->
<svg version="1.1" id="Capa_1" xmlns="http://www.w3.org/2000/svg" xmlns:xlink="http://www.w3.org/1999/xlink" x="0px" y="0px"
	 viewBox="0 0 512 512" style="enable-background:new 0 0 512 512;" xml:space="preserve">
<style type="text/css">
	.st0{fill:none;}
</style>
<path class="st0" d="M-104.4,76.8l-42.4-42.4c-4.9-4.9-10.3-4.4-13.2-4.4v60h60C-100,86.8-99.6,81.6-104.4,76.8z"/>
<path d="M208.7,0.4C138.2,0.4,81,57.5,81,128s57.1,127.7,127.6,127.7s127.7-57.1,127.7-127.6l0,0C336.3,57.6,279.2,0.5,208.7,0.4z
	 M208.7,228.7c-55.6,0-100.6-45.1-100.6-100.6c0-55.6,45.1-100.6,100.6-100.6c55.6,0,100.6,45,100.6,100.6
	C309.3,183.6,264.3,228.7,208.7,228.7L208.7,228.7z"/>
<path class="st0" d="M283.1,343.5c0-8.4,1-16.5,3-24.3c-16.5,10.7-41.9,21.3-77.5,21.7c0,0-62.7,3-102.1-42.5
	c-9.6,2.5-63.1,19.4-77.6,80.8v102.5h360.7v-37.8c-2,0.1-3.9,0.2-5.9,0.2C328.1,444.1,283.1,399,283.1,343.5z"/>
<path d="M511.3,343.5c0-70.5-57.1-127.6-127.6-127.7c-54.3,0-100.6,33.8-119.1,81.6c-29,16.5-56.7,14.3-56.7,14.3
	c-66.7,0-91.1-49.7-91.1-49.7l-0.1,0.1V262C3.8,292,0,381.3,0,381.3v115.2v0.1c0,8.3,6.7,15,15,15h388.6c8.3,0,15-6.7,15-15
	c0-0.6,0-1.1-0.1-1.7v-28.7C472,451.1,511.3,401.9,511.3,343.5z M383.7,242.9L383.7,242.9c55.6,0,100.6,45,100.6,100.6
	c0,43.3-27.4,80.2-65.8,94.4l0,0c-9.1,3.4-18.8,5.4-28.9,6l0,0c-2,0.1-3.9,0.2-5.9,0.2l0,0l0,0c-55.6,0-100.6-45-100.6-100.6
	c0-8.4,1-16.5,2.9-24.2c0,0,0,0,0.1,0c5.1-20.7,16.6-38.8,32.3-52.2l0,0C335.9,252,358.7,242.9,383.7,242.9L383.7,242.9z
	 M389.6,481.8H28.9V379.3c14.5-61.4,68-78.3,77.6-80.8C145.9,344,208.6,341,208.6,341c18.7-0.2,34.5-3.2,47.8-7.6
	c-0.3,3.3-0.4,6.7-0.4,10.1c0,70.5,57.1,127.7,127.6,127.7c2,0,4-0.1,6-0.1V481.8z"/>
<path d="M385.6,401.5L385.6,401.5c-8.3,0-15-6.7-15-15v-84c0-8.3,6.7-15,15-15l0,0c8.3,0,15,6.7,15,15v84
	C400.6,394.8,393.9,401.5,385.6,401.5z"/>
<path d="M328.6,344.5L328.6,344.5c0-8.3,6.7-15,15-15h84c8.3,0,15,6.7,15,15l0,0c0,8.3-6.7,15-15,15h-84
	C335.3,359.5,328.6,352.8,328.6,344.5z"/>
<path d="M759,401.1L759,401.1c-8.3,0-15-6.7-15-15v-84c0-8.3,6.7-15,15-15l0,0c8.3,0,15,6.7,15,15v84
	C774,394.4,767.3,401.1,759,401.1z"/>
<path d="M702,344.1L702,344.1c0-8.3,6.7-15,15-15h84c8.3,0,15,6.7,15,15l0,0c0,8.3-6.7,15-15,15h-84
	C708.6,359.1,702,352.4,702,344.1z"/>
<path d="M886,344.1c0,70.2-56.9,127.1-127,127.1s-127-56.9-127-127.1s56.9-127,127-127S886,273.9,886,344.1z M759,243.5
	c-55.6,0-100.6,45-100.6,100.6s45,100.6,100.6,100.6c55.6,0,100.6-45,100.6-100.6S814.5,243.5,759,243.5z"/>
</svg>
