<?xml version="1.0" encoding="utf-8"?>
<!-- Generator: Adobe Illustrator 22.0.0, SVG Export Plug-In . SVG Version: 6.00 Build 0)  -->
<svg version="1.1" id="圖層_3" xmlns="http://www.w3.org/2000/svg" xmlns:xlink="http://www.w3.org/1999/xlink" x="0px" y="0px"
	 viewBox="0 0 512 512" style="enable-background:new 0 0 512 512;" xml:space="preserve">
<path d="M430,172c0,0,7-76-71-136.5S186.5,13,186.5,13s-105,41.5-109,160c0,0-47.5,6-47.5,63v89.5c0,0,2,49.5,42,55.5
	c0,0,20.5,5.5,47.5,3.5c0,0,13.5,0,13.5-19v-177c0,0,3.6-14-14-15.5h-13.5c0,0,1.4-135.5,148.7-146c0,0,136.8-2.5,146.8,144.5
	l-13.5,0.5c0,0-13,0.5-12.5,13.5V367c0,0,1,14.9,12,17.9h16c0,0,3.5,72.3-88.5,72.3c0,0,0.8-22.7-23.6-23.2h-60.3
	c0,0-23.6,1.9-24.1,23.2v33.3c0,0,2.2,20.5,24.1,21.5H294c0,0,21.5-1.6,21.5-23.8c0,0,115,9.8,116-104.2c0,0,46-7.5,46.5-54.5V232
	C478,232,480.5,179.5,430,172z M105,356.5H84c0,0-27.5-2-28-35.5v-89.5c0,0-2.5-28.5,32-33.5h17V356.5z M287,484.3h-52.3v-23.7H287
	V484.3z M451.3,231.5V321c-0.5,33.5-28,35.5-28,35.5h-21V198h17C453.8,203,451.3,231.5,451.3,231.5z"/>
</svg>
