<?xml version="1.0" encoding="utf-8"?>
<!-- Generator: Adobe Illustrator 22.0.0, SVG Export Plug-In . SVG Version: 6.00 Build 0)  -->
<svg version="1.1" id="Layer_1" xmlns="http://www.w3.org/2000/svg" xmlns:xlink="http://www.w3.org/1999/xlink" x="0px" y="0px"
	 viewBox="0 0 512 512" style="enable-background:new 0 0 512 512;" xml:space="preserve">
<path d="M49.5,346.8h148.6c9.1,0,16.5-7.4,16.5-16.5s-7.4-16.5-16.5-16.5h-67.2c-7.3-50.6-47.4-90.6-97.9-97.9v-85
	c50.6-7.3,90.6-47.4,97.9-97.9h250.1c7.3,50.6,47.4,90.6,97.9,97.9v85c-50.6,7.3-90.6,47.4-97.9,97.9h-67.2
	c-9.1,0-16.5,7.4-16.5,16.5s7.4,16.5,16.5,16.5h148.6c27.3,0,49.5-22.2,49.5-49.5V49.6C512,22.2,489.8,0,462.5,0H49.5
	C22.2,0,0,22.2,0,49.6v247.7C0,324.6,22.2,346.8,49.5,346.8z M479,297.3c0,9.1-7.4,16.5-16.5,16.5h-47.9
	c6.6-32.3,32.1-57.8,64.4-64.4V297.3z M462.5,33c9.1,0,16.5,7.4,16.5,16.5v47.9c-32.3-6.6-57.8-32.1-64.4-64.4H462.5z M33,49.6
	C33,40.4,40.4,33,49.5,33h47.9C90.9,65.3,65.3,90.9,33,97.4V49.6z M33,249.4c32.3,6.6,57.8,32.1,64.4,64.4H49.5
	c-9.1,0-16.5-7.4-16.5-16.5V249.4z"/>
<path d="M272.1,198.3c0-6-3.8-11.3-9.5-13.3l-21-7.2c-17.8-6.1-29.7-22.9-29.7-41.7c0-19.4,12.6-35.9,30.1-41.8v-14
	c0-8.3,6.7-15,15-15c8.3,0,15,6.7,15,15v14c17.5,5.9,30.1,22.4,30.1,41.8c0,8.3-6.7,15-15,15s-15-6.7-15-15c0-7.7-6.3-14-14-14h-2
	c-7.7,0-14,6.3-14,14c0,6,3.8,11.3,9.5,13.3l21,7.2c17.8,6.1,29.7,22.9,29.7,41.7c0,19.4-12.6,35.9-30.1,41.8v14c0,8.3-6.7,15-15,15
	c-8.3,0-15-6.7-15-15v-14c-17.5-5.9-30.1-22.4-30.1-41.8c0-8.3,6.7-15,15-15c8.3,0,15,6.7,15,15c0,7.7,6.3,14,14,14h2
	C265.8,212.3,272.1,206,272.1,198.3L272.1,198.3z"/>
<path d="M190.2,452l55.2,55.2l0,0l0,0c0,0,0,0,0,0c0.3,0.3,0.7,0.7,1.1,1c0.2,0.1,0.4,0.3,0.5,0.4c0.2,0.2,0.4,0.3,0.6,0.5
	c0.2,0.1,0.4,0.3,0.7,0.4c0.2,0.1,0.4,0.2,0.6,0.4c0.2,0.1,0.5,0.2,0.7,0.3c0.2,0.1,0.4,0.2,0.6,0.3c0.2,0.1,0.4,0.2,0.7,0.2
	c0.2,0.1,0.5,0.2,0.7,0.2c0.2,0.1,0.5,0.1,0.7,0.2c0.2,0.1,0.5,0.1,0.7,0.2c0.3,0.1,0.5,0.1,0.8,0.1c0.2,0,0.4,0.1,0.7,0.1
	c1,0.1,2,0.1,3,0c0.2,0,0.4-0.1,0.7-0.1c0.3,0,0.5-0.1,0.8-0.1c0.3,0,0.5-0.1,0.7-0.2c0.2-0.1,0.5-0.1,0.7-0.2
	c0.2-0.1,0.5-0.2,0.7-0.2c0.2-0.1,0.5-0.2,0.7-0.2c0.2-0.1,0.4-0.2,0.6-0.3c0.2-0.1,0.5-0.2,0.7-0.3c0.2-0.1,0.4-0.2,0.6-0.4
	c0.2-0.1,0.4-0.3,0.7-0.4c0.2-0.1,0.4-0.3,0.6-0.5c0.2-0.1,0.4-0.3,0.5-0.4c0.4-0.3,0.7-0.6,1.1-1c0,0,0,0,0,0l0,0l0,0l55.2-55.2
	c5.8-5.8,5.8-15.3,0-21.1c-5.8-5.8-15.3-5.8-21.1,0L271,460.6V319.2c0-8.3-6.7-14.9-15-14.9s-15,6.7-15,14.9v141.3l-29.7-29.7
	c-5.8-5.8-15.3-5.8-21.1,0C184.4,436.7,184.4,446.2,190.2,452z"/>
</svg>
